<svg width="37" height="37" viewBox="0 0 37 37" fill="none" xmlns="http://www.w3.org/2000/svg">
<g clip-path="url(#clip0_2_26)">
<path d="M30.8333 26.9791C31.4272 26.9794 31.9982 27.2082 32.428 27.618C32.8578 28.0279 33.1135 28.5873 33.142 29.1805C33.1705 29.7737 32.9698 30.3551 32.5813 30.8043C32.1928 31.2535 31.6464 31.5361 31.0553 31.5934L30.8333 31.6041H6.16666C5.57278 31.6039 5.00178 31.3751 4.57198 30.9653C4.14217 30.5554 3.88651 29.996 3.85797 29.4028C3.82943 28.8096 4.0302 28.2282 4.41868 27.779C4.80715 27.3298 5.35355 27.0472 5.94466 26.9899L6.16666 26.9791H30.8333ZM30.8333 16.1875C31.4466 16.1875 32.0348 16.4311 32.4685 16.8648C32.9022 17.2985 33.1458 17.8867 33.1458 18.5C33.1458 19.1133 32.9022 19.7015 32.4685 20.1352C32.0348 20.5688 31.4466 20.8125 30.8333 20.8125H6.16666C5.55334 20.8125 4.96515 20.5688 4.53147 20.1352C4.09779 19.7015 3.85416 19.1133 3.85416 18.5C3.85416 17.8867 4.09779 17.2985 4.53147 16.8648C4.96515 16.4311 5.55334 16.1875 6.16666 16.1875H30.8333ZM30.8333 5.39581C31.4466 5.39581 32.0348 5.63945 32.4685 6.07313C32.9022 6.50681 33.1458 7.095 33.1458 7.70831C33.1458 8.32163 32.9022 8.90982 32.4685 9.3435C32.0348 9.77718 31.4466 10.0208 30.8333 10.0208H6.16666C5.55334 10.0208 4.96515 9.77718 4.53147 9.3435C4.09779 8.90982 3.85416 8.32163 3.85416 7.70831C3.85416 7.095 4.09779 6.50681 4.53147 6.07313C4.96515 5.63945 5.55334 5.39581 6.16666 5.39581H30.8333Z" fill="white"/>
</g>
<defs>
<clipPath id="clip0_2_26">
<rect width="37" height="37" fill="white"/>
</clipPath>
</defs>
</svg>
